<svg width="512" height="512" viewBox="0 0 512 512" fill="none" xmlns="http://www.w3.org/2000/svg">
<path d="M251.69 425.251H216.991V485.975H251.69V425.251Z" fill="#5B5D6E"/>
<path d="M234.048 433.931C206.439 433.931 178.399 428.627 151.341 417.42L157.983 401.392C259.59 443.479 376.565 395.055 418.668 293.41C460.771 191.769 412.331 74.8241 310.69 32.7211L317.332 16.6931C427.808 62.4561 480.459 189.57 434.696 300.052C400.141 383.474 319.195 433.931 234.048 433.931Z" fill="#7F8499"/>
<path d="M148.113 433.943C147.004 433.943 145.876 433.727 144.792 433.278C140.37 431.444 138.269 426.37 140.099 421.943L312.622 5.35296C314.452 0.926964 319.56 -1.16604 323.957 0.659964C328.379 2.49396 330.48 7.56796 328.65 11.995L156.127 428.586C154.746 431.923 151.511 433.943 148.113 433.943Z" fill="#AFB9D2"/>
<path d="M166.919 357.18L153.386 389.859C155.991 391.077 158.619 392.263 161.302 393.374C163.994 394.49 166.702 395.513 169.415 396.497L182.962 363.785L166.919 357.18Z" fill="#959CB5"/>
<path d="M234.34 390.551C330.159 390.551 407.836 312.874 407.836 217.055C407.836 121.236 330.159 43.5591 234.34 43.5591C138.521 43.5591 60.844 121.236 60.844 217.055C60.844 312.874 138.521 390.551 234.34 390.551Z" fill="#59D8FF"/>
<path d="M271.994 325.252C183.469 288.584 141.429 187.094 178.098 98.5681C186.616 78.0041 198.744 60.0771 213.282 44.9341C153.274 52.3341 98.835 90.8151 74.046 150.663C37.378 239.188 79.416 340.679 167.941 377.347C235.903 405.498 311.392 387.132 359.441 337.086C330.687 340.63 300.672 337.13 271.994 325.252Z" fill="#3DB2FF"/>
<path d="M319.232 512H149.441C144.605 512 141.459 506.91 143.621 502.585L153.865 482.097C155.334 479.158 158.338 477.302 161.624 477.302H307.048C310.334 477.302 313.337 479.158 314.807 482.097L325.051 502.585C327.214 506.911 324.068 512 319.232 512Z" fill="#7F8499"/>
<path d="M338.434 147.658C336.214 147.658 333.995 146.811 332.301 145.116C328.912 141.727 328.912 136.237 332.301 132.849L340.976 124.174C344.365 120.785 349.855 120.785 353.243 124.174C356.631 127.563 356.632 133.053 353.243 136.441L344.568 145.116C342.873 146.811 340.653 147.658 338.434 147.658Z" fill="#B4FF87"/>
<path d="M264.823 96.7889L284.357 98.6669L286.878 91.5569L248.965 78.1099C246.996 77.4119 244.855 77.3509 242.849 77.9379L220.2 84.5579C216.066 85.7659 212.319 81.7529 213.808 77.7109L215.574 72.9149C216.766 69.6799 215.084 66.0949 211.835 64.9429L210.898 64.6109C204.917 62.4899 198.338 62.8319 192.608 65.5609L187.696 67.9009C184.713 69.3229 181.143 68.0559 179.722 65.0729L174.501 54.4109C150.331 63.3099 128.199 77.4699 109.945 96.2529L109.583 129.792C109.459 136.285 113.504 142.129 119.625 144.3L121.564 144.987V159.264C121.564 171.228 127.726 182.347 137.872 188.687L162.685 204.195L155.715 213.129L150.672 227.35C149.085 231.825 149.697 236.787 152.326 240.743L164.851 259.593C167.479 263.549 168.092 268.511 166.505 272.986L159.782 291.942C157.104 299.495 155.969 307.509 156.447 315.508L157.748 337.301C157.919 340.171 159.759 342.674 162.449 343.692L162.493 343.708C166.32 345.158 170.591 343.179 171.958 339.322L179.465 318.154L193.893 314.513C198.078 313.457 201.743 310.928 204.215 307.391L212.929 294.922C214.926 292.362 218.338 291.367 221.399 292.453L224.943 293.71C228.206 294.867 231.837 293.656 233.751 290.771L242.072 278.229C245.558 272.975 246.032 266.278 243.32 260.586L241.713 257.211C239.666 252.913 235.994 249.604 231.507 248.012L228.965 247.11C225.974 246.05 223.527 243.844 222.162 240.979L211.27 218.114C208.314 212.718 191.753 201.895 191.753 201.895L153.62 178.064C150.281 175.978 148.836 171.854 150.144 168.139C153.429 158.804 163.748 153.872 173.075 157.181L176.576 158.423L173.922 163.974C171.855 168.298 173.685 173.479 178.006 175.546C179.217 176.122 180.488 176.393 181.742 176.393C184.978 176.393 188.088 174.576 189.579 171.462L197.78 154.314L248.186 127.717C249.618 127.035 251.263 126.949 252.759 127.48L261.265 130.497C263.345 131.235 265.662 130.768 267.294 129.281L269.995 126.821C272.278 124.742 272.603 121.267 270.746 118.8L260.284 104.899C257.623 101.369 260.426 96.3659 264.823 96.7889Z" fill="#B4FF87"/>
<path d="M394.626 283.45C402.238 265.072 406.275 246.145 407.391 227.346L396.473 223.718C393.133 222.534 389.518 222.364 386.082 223.231L381.081 224.493C374.58 226.134 367.715 223.881 363.45 218.709L354.566 207.935C350.427 202.916 345.001 199.115 338.869 196.94L325.86 192.326C318.943 189.872 311.229 191.878 306.382 197.389L297.525 207.462C294.622 210.763 292.375 214.588 290.906 218.732C287.27 228.983 288.673 240.347 294.693 249.406L295.312 250.339C299.45 256.566 305.496 261.283 312.542 263.783L312.964 263.933C322.307 267.247 327.195 277.507 323.881 286.85L317.166 305.785C314.998 311.894 314.095 318.38 314.51 324.849L316.034 348.588C316.387 354.099 321.485 360.311 326.568 363.851C356.026 345.373 380.306 318.022 394.626 283.45Z" fill="#B4FF87"/>
<path d="M407.117 202.387C404.89 176.41 396.776 151.391 383.658 129.085L369.976 134.691C368.169 135.551 366.779 137.094 366.11 138.98L361.861 150.96C360.407 155.061 357.383 158.416 353.455 160.288C351.155 161.383 348.633 161.929 346.087 161.88L333.599 160.836C328.183 160.384 323.141 163.638 321.324 168.762L318.408 176.986C316.199 183.215 319.458 190.055 325.686 192.263L335.363 195.695C339.774 197.26 344.693 196.108 347.951 192.749L359.136 181.218L407.117 202.387Z" fill="#B4FF87"/>
<path d="M166.258 185.964L153.618 178.064C150.278 175.978 148.834 171.854 150.14 168.14C152.514 161.393 158.573 157.004 165.265 156.304C166.229 136.968 170.266 117.478 178.098 98.5669C183.323 85.9529 190.039 74.4569 197.705 63.8609C195.962 64.2489 194.247 64.7789 192.609 65.5589L187.697 67.8989C184.714 69.3209 181.144 68.0539 179.723 65.0709L174.502 54.4099C174.488 54.4149 174.473 54.4209 174.459 54.4259C150.306 63.3259 128.19 77.4789 109.946 96.2509L109.584 129.79C109.46 136.283 113.505 142.127 119.626 144.298L121.565 144.985V159.262C121.565 171.226 127.728 182.345 137.873 188.685L162.686 204.193L155.716 213.127L150.673 227.348C149.086 231.823 149.698 236.785 152.327 240.741L164.852 259.59C167.48 263.546 168.093 268.508 166.506 272.984L159.783 291.94C157.105 299.493 155.97 307.506 156.448 315.505L157.749 337.299C157.92 340.169 159.76 342.672 162.45 343.69L162.494 343.706C166.321 345.156 170.592 343.177 171.959 339.32L179.466 318.152L193.894 314.511C198.079 313.455 201.744 310.926 204.216 307.389L212.93 294.92C214.809 292.512 217.933 291.557 220.846 292.348C190.482 264.323 171.241 226.474 166.258 185.964Z" fill="#9BF57D"/>
<path d="M359.419 337.087C344.916 338.873 330.093 338.855 315.28 336.885L316.03 348.583C316.381 354.063 321.429 360.23 326.484 363.779C327.039 363.43 327.613 363.113 328.164 362.759C329.862 361.668 331.514 360.501 333.176 359.351C335.158 357.975 337.144 356.607 339.071 355.146C340.32 354.203 341.525 353.199 342.75 352.222C345.025 350.399 347.293 348.567 349.481 346.625C350.215 345.977 350.916 345.288 351.639 344.625C354.234 342.242 356.797 339.817 359.253 337.266C359.31 337.207 359.363 337.145 359.419 337.087Z" fill="#9BF57D"/>
</svg>
