<svg width="402" height="267" viewBox="0 0 402 267" fill="none" xmlns="http://www.w3.org/2000/svg">
<path d="M98.795 159.507C109.782 152.529 117.081 140.28 117.081 126.302C117.081 104.557 99.453 86.9341 77.713 86.9341C55.968 86.9341 38.34 104.557 38.34 126.302C38.34 140.28 45.65 152.529 56.626 159.507C23.959 168.694 0 198.69 0 234.295C0 277.215 155.416 277.215 155.416 234.295C155.416 198.69 131.462 168.699 98.795 159.507Z" fill="#3DB2FF"/>
<path d="M397.862 153.807L322.71 78.655V29.09C322.71 22.917 317.706 17.902 311.516 17.902C305.337 17.902 300.333 22.917 300.333 29.09V56.285L247.313 3.276C242.951 -1.092 235.869 -1.092 231.513 3.276L156.215 78.574C162.644 82.621 167.822 88.424 171.091 95.326L239.422 26.99L382.067 169.629C384.237 171.805 387.109 172.909 389.965 172.909C392.815 172.909 395.692 171.821 397.868 169.629C402.23 165.246 402.23 158.169 397.862 153.807Z" fill="#3DB2FF"/>
<path d="M365.88 166.638L247.336 48.0941C245.231 45.9891 242.397 44.8091 239.433 44.8091C236.469 44.8091 233.63 45.9891 231.53 48.0941L174.295 105.324C174.703 107.598 174.953 109.936 174.953 112.324C174.953 117.442 173.985 122.413 172.168 127.004C188.219 138.676 198.341 157.61 198.341 178.229C198.341 185.419 195.105 201.666 167.871 209.504C170.068 217.461 171.254 225.778 171.254 234.301C171.254 246.093 165.668 255.334 156.639 262.454H194.277C201.767 262.454 208.995 259.288 214.108 253.751C218.753 248.736 221.309 242.226 221.309 235.416V192.926C221.309 182.614 229.212 174.003 239.421 173.03C249.63 174.004 257.533 182.619 257.533 192.926V235.416C257.533 242.226 260.095 248.736 264.729 253.751C269.831 259.288 277.059 262.454 284.56 262.454H342.426C357.318 262.454 369.453 250.33 369.453 235.416V177.55C369.453 175.858 369.295 174.14 368.953 172.432C368.529 170.228 367.463 168.221 365.88 166.638Z" fill="#3DB2FF"/>
<path d="M113.921 156.717C131.647 165.001 145.788 179.153 154.339 196.33C170.129 193.697 182.502 187.671 182.502 178.229C182.502 156.505 167.882 138.203 147.948 132.59C154.649 128.32 159.114 120.852 159.114 112.319C159.114 99.053 148.35 88.3 135.09 88.3C127.1 88.3 120.046 92.2111 115.678 98.1991C121.514 106.069 125.011 115.767 125.011 126.286C125.006 137.626 121.008 148.314 113.921 156.717Z" fill="#3DB2FF"/>
</svg>
