<svg width="512" height="512" viewBox="0 0 512 512" fill="none" xmlns="http://www.w3.org/2000/svg">
<path d="M177.094 225.914H70.5312C57.9414 225.914 47.6992 215.672 47.6992 203.082H62.9219C62.9219 207.277 66.3359 210.691 70.5312 210.691H177.094V225.914Z" fill="#FF4128"/>
<path d="M441.973 225.914H335.414C322.82 225.914 312.578 215.672 312.578 203.082H327.801C327.801 207.277 331.215 210.691 335.414 210.691H441.973V225.914Z" fill="#FFE2A8"/>
<path d="M202.465 198.008H172.02L177.094 263.973V340.09C202.316 340.09 222.762 319.641 222.762 294.418V218.305C222.762 207.094 213.676 198.008 202.465 198.008V198.008Z" fill="#CF301B"/>
<path d="M172.02 198.008H151.723C140.512 198.008 131.426 207.094 131.426 218.305V263.973L100.98 294.422L131.426 340.09L154.258 355.312L177.094 340.09C185.5 340.09 192.316 319.641 192.316 294.418V218.305C192.316 207.094 183.23 198.008 172.02 198.008V198.008Z" fill="#FF4128"/>
<path d="M441.973 263.973V340.09C467.195 340.09 487.645 319.641 487.645 294.418L441.973 263.973Z" fill="#2DADE3"/>
<path d="M457.195 294.418V279.195H365.859L396.305 340.09L419.141 355.312L441.973 340.09C450.383 340.09 457.195 319.641 457.195 294.418V294.418Z" fill="#49C9FF"/>
<path d="M467.348 198.008H436.898L457.195 294.418H487.645V218.305C487.645 207.094 478.555 198.008 467.348 198.008V198.008Z" fill="#FFCB63"/>
<path d="M436.898 198.008H416.602C405.391 198.008 396.305 207.094 396.305 218.305V263.973L365.859 294.418H457.195V218.305C457.195 207.094 448.109 198.008 436.898 198.008Z" fill="#FFE2A8"/>
<path d="M243.059 182.785C231.852 182.785 222.762 173.695 222.762 162.488V121.891C245.184 121.891 263.359 140.066 263.359 162.488C263.359 173.695 254.27 182.785 243.059 182.785Z" fill="#FF6337"/>
<path d="M191.395 106.211L177.094 167.562C202.316 167.562 222.762 147.113 222.762 121.891L191.395 106.211Z" fill="#FFB4A9"/>
<path d="M192.316 121.891C192.316 116.383 191.992 111.102 191.395 106.211L149.691 85.3594C138.598 93.6914 131.426 106.953 131.426 121.891C131.426 147.113 151.871 167.559 177.094 167.559C185.5 167.562 192.316 147.113 192.316 121.891Z" fill="#FFD9D0"/>
<path d="M177.094 76.2227L192.215 116.648C201.77 120.039 212.047 121.891 222.762 121.891C222.762 96.668 202.316 76.2227 177.094 76.2227Z" fill="#FF6337"/>
<path d="M177.094 76.2227C166.812 76.2227 157.324 79.6211 149.691 85.3594C160.379 99.5859 175.129 110.586 192.215 116.648C191.348 93.8984 184.91 76.2227 177.094 76.2227Z" fill="#FF8646"/>
<path d="M85.7578 225.914C81.5508 225.914 78.1445 222.508 78.1445 218.305V142.188C78.1445 137.984 81.5508 134.578 85.7578 134.578C89.9609 134.578 93.3672 137.984 93.3672 142.188V218.305C93.3672 222.508 89.9609 225.914 85.7578 225.914Z" fill="#49C9FF"/>
<path d="M55.3086 210.691C51.1055 210.691 47.6992 207.285 47.6992 203.082C47.6992 190.488 57.9414 180.246 70.5312 180.246H85.7578C89.9609 180.246 93.3672 183.656 93.3672 187.859C93.3672 192.062 89.9609 195.469 85.7578 195.469H70.5312C66.3359 195.469 62.9219 198.883 62.9219 203.082C62.9219 207.285 59.5156 210.691 55.3086 210.691Z" fill="#FF4128"/>
<path d="M350.637 225.914C346.434 225.914 343.023 222.508 343.023 218.305V142.188C343.023 137.984 346.434 134.578 350.637 134.578C354.84 134.578 358.246 137.984 358.246 142.188V218.305C358.246 222.508 354.84 225.914 350.637 225.914Z" fill="#49C9FF"/>
<path d="M320.191 210.691C315.988 210.691 312.578 207.285 312.578 203.082C312.578 190.488 322.82 180.246 335.414 180.246H350.637C354.84 180.246 358.246 183.656 358.246 187.859C358.246 192.062 354.84 195.469 350.637 195.469H335.414C331.215 195.469 327.801 198.883 327.801 203.082C327.801 207.285 324.395 210.691 320.191 210.691V210.691Z" fill="#FFE2A8"/>
<path d="M472.422 69.1602C468.781 67.0586 464.125 68.3047 462.023 71.9453L443.727 103.633L456.91 111.246L475.207 79.5547C477.309 75.9141 476.059 71.2617 472.422 69.1602V69.1602Z" fill="#40211D"/>
<path d="M441.973 61C437.77 61 434.363 64.4062 434.363 68.6133V93.4844L421.926 71.9453C419.824 68.3047 415.168 67.0586 411.527 69.1602C407.887 71.2617 406.641 75.9141 408.742 79.5547L433.352 122.18H449.586V68.6133C449.586 64.4062 446.18 61 441.973 61V61Z" fill="#60312C"/>
<path d="M441.973 76.2227V167.562C467.195 167.562 487.645 147.113 487.645 121.891C487.645 96.668 467.195 76.2227 441.973 76.2227Z" fill="#60312C"/>
<path d="M457.195 121.891C457.195 96.668 450.383 76.2227 441.973 76.2227C416.75 76.2227 396.305 96.668 396.305 121.891C396.305 147.113 416.75 167.562 441.973 167.562C450.383 167.562 457.195 147.113 457.195 121.891V121.891Z" fill="#85453D"/>
<path d="M496.777 359.879V443.605C496.777 447.809 500.184 451.215 504.387 451.215C508.594 451.215 512 447.809 512 443.605V370.027L496.777 359.879Z" fill="#E18F4E"/>
<path d="M481.555 339.582L461.258 354.805L481.555 370.027H512V339.582H481.555Z" fill="#E18F4E"/>
<path d="M388.695 339.578H481.555V370.027H388.695V339.578Z" fill="#FFA754"/>
<path d="M381.082 319.281V443.605C381.082 447.809 384.488 451.215 388.695 451.215C392.898 451.215 396.305 447.809 396.305 443.605V339.578L381.082 319.281Z" fill="#A45E43"/>
<path d="M272.492 283.762V443.605C272.492 447.809 275.898 451.215 280.102 451.215C284.309 451.215 287.715 447.809 287.715 443.605V283.762H272.492Z" fill="#C27749"/>
<path d="M337.949 312.18C337.945 312.18 337.945 428.473 337.945 428.473L312.703 436.887C308.715 438.215 306.563 442.527 307.891 446.516C309.219 450.504 313.531 452.66 317.52 451.328L347.961 441.18C351.07 440.145 353.168 437.234 353.168 433.961V319.785L337.949 312.18Z" fill="#49C9FF"/>
<path d="M396.305 339.578H365.859L301.414 278.688L396.305 293.91V339.578Z" fill="#A45E43"/>
<path d="M280.102 278.688H365.859V339.578H280.102V278.688Z" fill="#C27749"/>
<path d="M365.859 263.465L335.414 278.688L365.859 293.91H396.305V263.465H365.859Z" fill="#E18F4E"/>
<path d="M264.879 263.465H365.859V293.91H264.879V263.465Z" fill="#FFA754"/>
<path d="M231.898 359.879V443.605C231.898 447.809 235.305 451.215 239.508 451.215C243.715 451.215 247.121 447.809 247.121 443.605V370.027L231.898 359.879Z" fill="#E18F4E"/>
<path d="M216.676 339.582L196.375 354.805L216.676 370.027H247.121V339.582H216.676Z" fill="#E18F4E"/>
<path d="M123.812 339.578H216.676V370.027H123.812V339.578Z" fill="#FFA754"/>
<path d="M116.203 319.281V443.605C116.203 447.809 119.609 451.215 123.812 451.215C128.02 451.215 131.426 447.809 131.426 443.605V339.578L116.203 319.281Z" fill="#A45E43"/>
<path d="M7.61328 283.762V443.605C7.61328 447.809 11.0195 451.215 15.2227 451.215C19.4258 451.215 22.8359 447.809 22.8359 443.605V283.762H7.61328Z" fill="#C27749"/>
<path d="M73.0703 312.18C73.0625 312.18 73.0625 428.473 73.0625 428.473L47.8242 436.887C43.836 438.215 41.6797 442.527 43.0117 446.516C44.3399 450.504 48.6524 452.66 52.6367 451.328L83.082 441.18C86.1914 440.145 88.2852 437.234 88.2852 433.961V319.785L73.0703 312.18Z" fill="#FFD9D0"/>
<path d="M131.426 339.578H100.98L36.5352 278.688L131.426 293.91V339.578Z" fill="#A45E43"/>
<path d="M15.2227 278.688H100.98V339.578H15.2227V278.688Z" fill="#C27749"/>
<path d="M100.98 263.465L70.5312 278.688L100.98 293.91H131.426V263.465H100.98Z" fill="#E18F4E"/>
<path d="M0 263.465H100.98V293.91H0V263.465Z" fill="#FFA754"/>
</svg>
